<svg xmlns="http://www.w3.org/2000/svg" viewBox="0 0 480 320" width="100%" height="100%">
  <defs>
    <linearGradient id="bgGrad_TEETHSCALINGPOLISHING" x1="0%" y1="0%" x2="100%" y2="100%">
      <stop offset="0%" stop-color="#F0FDF4"/>
      <stop offset="100%" stop-color="#DCFCE7"/>
    </linearGradient>
    <filter id="cardGlow_TEETHSCALINGPOLISHING" x="-20%" y="-20%" width="140%" height="140%">
      <feDropShadow dx="0" dy="8" stdDeviation="12" flood-color="#16A34A" flood-opacity="0.18"/>
    </filter>
    <radialGradient id="mesh_TEETHSCALINGPOLISHING" cx="80%" cy="20%" r="60%">
      <stop offset="0%" stop-color="#4ADE80" stop-opacity="0.25"/>
      <stop offset="100%" stop-color="#4ADE80" stop-opacity="0"/>
    </radialGradient>
  </defs>
  
  <!-- Outer Card Canvas -->
  <rect width="480" height="320" rx="20" fill="url(#bgGrad_TEETHSCALINGPOLISHING)"/>
  <rect width="480" height="320" rx="20" fill="url(#mesh_TEETHSCALINGPOLISHING)"/>
  
  <!-- Ambient Graphic Rings -->
  <circle cx="410" cy="70" r="90" fill="#16A34A" opacity="0.08"/>
  <circle cx="70" cy="250" r="110" fill="#001428" opacity="0.04"/>
  
  <!-- Central Sterile Medical Emblem Container -->
  <g filter="url(#cardGlow_TEETHSCALINGPOLISHING)">
    <rect x="135" y="45" width="210" height="185" rx="24" fill="#FFFFFF"/>
    <rect x="135" y="45" width="210" height="185" rx="24" fill="none" stroke="#16A34A" stroke-width="1.5" stroke-opacity="0.2"/>
    <circle cx="240" cy="138" r="60" fill="#F0FDF4" stroke="#16A34A" stroke-width="1" stroke-dasharray="4 4" stroke-opacity="0.4"/>
    <g transform="translate(192, 90) scale(2.0)">
      <path d="M16 8 C18 4, 32 4, 34 8 C38 12, 38 20, 34 24 C32 28, 31 36, 28 36 C26 36, 26 28, 25 28 C24 28, 24 36, 22 36 C19 36, 18 28, 16 24 C12 20, 12 12, 16 8 Z" fill="none" stroke="#16A34A" stroke-width="2"/>
           <path d="M34 10 L40 7 M37 16 L43 16 M35 22 L40 25" stroke="#16A34A" stroke-width="2" stroke-linecap="round"/>
           <path d="M14 10 L8 7 M11 16 L5 16 M13 22 L8 25" stroke="#16A34A" stroke-width="2" stroke-linecap="round"/>
    </g>
  </g>
  
  <!-- Lower Title Pill -->
  <g transform="translate(85, 252)">
    <rect width="310" height="42" rx="21" fill="#001428" filter="drop-shadow(0 4px 8px rgba(0, 20, 40, 0.2))"/>
    <circle cx="24" cy="21" r="6" fill="#4ADE80"/>
    <text x="160" y="26" fill="#FFFFFF" font-family="'Plus Jakarta Sans', system-ui, -apple-system, sans-serif" font-size="13" font-weight="700" text-anchor="middle" letter-spacing="0.6">TEETH SCALING & POLISHING</text>
  </g>
</svg>